<svg xmlns="http://www.w3.org/2000/svg" viewBox="0 0 1798.79 561.4"><defs><style>.cls-1{fill:#0077c6;}</style></defs><title>bvt_Logo</title><g id="레이어_2" data-name="레이어 2"><g id="Bvoat"><path class="cls-1" d="M343.82,254.89h0A164.47,164.47,0,0,0,206.53,0H0V97.07H42.13V561H260.18a164.48,164.48,0,0,0,83.64-306.09ZM139.13,97.06h67.4a67.45,67.45,0,1,1,0,134.9H139.12ZM260.18,463.91H139.12V329H260.18a67.45,67.45,0,0,1,0,134.9Z"/><polygon class="cls-1" points="744.54 207.95 650.91 434.44 557.28 207.95 452.31 207.95 598.43 561.4 703.39 561.4 849.51 207.95 744.54 207.95"/><path class="cls-1" d="M1025.79,208a176.63,176.63,0,1,0,176.48,176.6C1202.15,287.08,1123.21,208.09,1025.79,208Zm0,256.15h0a79.56,79.56,0,1,1,79.48-79.55A79.49,79.49,0,0,1,1025.79,464.1Z"/><path class="cls-1" d="M1494.28,227.14a176.56,176.56,0,1,0,0,315.3v18.95h97V208.2h-97ZM1414.8,464.33h0a79.55,79.55,0,1,1,79.48-79.54A79.51,79.51,0,0,1,1414.8,464.32Z"/><path class="cls-1" d="M1798.79,305V208h-46.42V0h-97V208h-28.14V305h28.14V466.15a95.06,95.06,0,0,0,94.93,95h48.49V464.08h-46.42V305Z"/></g></g></svg>